<svg width="1613" height="585" viewBox="0 0 1613 585" fill="none" xmlns="http://www.w3.org/2000/svg">
<path d="M216.354 173.686C216.354 189.16 220.678 200.869 228.473 208.659C236.177 216.36 247.533 220.495 262.495 220.495C278.256 220.495 290.096 216.333 298.075 208.63C306.139 200.845 310.565 189.151 310.565 173.686C310.565 116.549 310.543 59.8176 286.071 2.95996L284.806 0.0195312H320.702V173.686C320.702 194.783 314.961 211.531 303.644 223.056C292.231 234.677 275.404 240.723 254.139 240.723C231.246 240.723 213.148 234.727 200.846 223.121C188.621 211.588 182.434 194.813 182.434 173.686V0.0195312H216.354V173.686ZM148.124 31.7188L143.024 27.3799C125.521 12.4906 107.402 8.68286 90.915 7.61914V239.739H56.9951V7.62012C40.5529 8.69908 22.606 12.6362 5.08984 27.3877L0 31.6748V0.0195312H148.124V31.7188ZM397.652 0.164062V0.0195312H417.934C446.954 0.0195358 468.479 3.47352 482.821 10.6357C497.401 17.9167 504.209 28.85 504.209 42.9424C504.209 56.7843 497.926 68.0448 485.656 75.7969C475.104 82.4634 460.397 86.3612 442.121 87.2881C455.131 92.9871 464.651 100.457 472.065 110.492C481.313 123.008 487.22 139.433 492.798 161.113L492.8 161.122C498.713 184.581 503.172 202.805 508.585 215.196C511.291 221.392 514.144 225.903 517.334 228.835C520.435 231.685 523.747 232.963 527.639 232.963H535.492V239.739H527.639C517.314 239.739 508.514 237.929 500.963 234.34C493.432 230.761 487.323 225.499 482.183 218.806C471.966 205.502 465.306 186.165 458.99 161.987C452.629 137.802 448.835 121.121 442.536 109.064C439.421 103.102 435.743 98.3855 430.938 94.5332C426.137 90.6853 420.094 87.6056 412.088 85.0352L410.294 84.459V84.4316C409.099 84.108 407.979 83.7589 406.932 83.4053V239.739H373.012V0L397.652 0.164062ZM576.923 2.0293C578.076 10.5626 582.493 19.1967 587.791 27.7852L588.861 29.502L588.862 29.5039L682.117 177.859C680.919 119.438 676.057 61.0239 657.096 2.80078L656.189 0.0195312H692V239.738H683.59L566.32 52.4561C567.075 114.185 571.382 175.74 591.421 236.954L592.332 239.738H556.518V36.8906L533.363 0.0195312H576.652L576.923 2.0293ZM317.776 173.685C317.776 215.352 295.064 238.481 254.139 238.481C209.786 238.481 185.36 215.352 185.359 173.685V173.686C185.359 215.353 209.786 238.483 254.139 238.483C295.064 238.483 317.776 215.353 317.776 173.686V173.685ZM59.9209 237.497V237.499H87.9893V237.497H59.9209ZM375.938 237.499H404.006V237.497H375.938V237.499ZM413.22 82.9697C446.431 93.6326 449.217 113.482 461.858 161.547C474.5 209.94 488.214 237.499 527.639 237.499H532.566V237.497H527.639C488.214 237.497 474.5 209.938 461.858 161.545C449.217 113.48 446.431 93.6307 413.22 82.9678V82.9697ZM559.443 36.3809V237.499H588.583L588.582 237.497H559.446V36.3789L538.021 2.25977H538.017L559.443 36.3809ZM563.303 42.4541L685.432 237.499H689.074V237.497H685.436L563.303 42.4482C563.303 42.4501 563.303 42.4523 563.303 42.4541ZM659.935 2.25977C680.075 64.1022 684.359 126.109 685.217 187.951L685.221 187.956C684.364 126.112 680.079 64.1038 659.938 2.25977H659.935ZM288.851 2.25977C311.008 53.7423 313.239 105.092 313.464 156.429C313.239 105.092 311.009 53.7422 288.852 2.25977H288.851ZM497.148 60.2188C488.541 76.1992 466.686 85.2646 433.361 85.2646H430.147C430.148 85.265 430.149 85.2653 430.15 85.2656H433.36C466.687 85.2656 488.542 76.2001 497.148 60.2188ZM404.007 79.8525C406.578 80.8368 409.577 81.9855 413.22 82.8057V82.8037C409.577 81.9835 406.578 80.8348 404.007 79.8506V79.8525ZM406.932 75.9561C413.644 78.8685 422.277 80.4013 433.36 80.4014C445.493 80.4014 454.553 76.9074 460.672 70.6738C466.879 64.3498 470.289 54.9651 470.289 42.9424C470.289 30.7511 466.236 21.9907 458.057 16.2314C449.825 10.4358 436.866 7.28809 417.934 7.28809H406.932V75.9561ZM497.799 58.9453C497.69 59.1706 497.578 59.3945 497.464 59.6172C497.578 59.3945 497.69 59.1706 497.799 58.9453ZM498.271 57.9268C498.175 58.1415 498.078 58.355 497.979 58.5674C498.078 58.355 498.175 58.1415 498.271 57.9268ZM499.273 55.3838C499.018 56.1166 498.739 56.8373 498.436 57.5459C498.739 56.8373 499.018 56.1166 499.273 55.3838ZM471.901 55.1328C471.813 55.5122 471.721 55.8882 471.624 56.2607C471.721 55.8882 471.813 55.5122 471.901 55.1328ZM500.023 52.9453C499.894 53.4295 499.753 53.9083 499.604 54.3828C499.753 53.9086 499.894 53.4302 500.023 52.9463V52.9453ZM473.123 46.3398C473.03 48.0325 472.863 49.6748 472.63 51.2656C472.812 50.0221 472.955 48.7473 473.052 47.4414L473.123 46.3398ZM404.007 5.04785H417.934C456.248 5.04786 472.991 17.6757 473.21 42.4482C472.992 17.6746 456.249 5.04688 417.934 5.04688H404.007V5.04785ZM59.9209 5.21094C42.1368 6.03116 22.2098 9.6396 2.92578 25.8799V25.8818C22.2098 9.64158 42.1368 6.03213 59.9209 5.21191V5.21094ZM87.9902 5.21191C105.774 6.03219 125.915 9.47762 145.199 25.8818V25.8799L144.295 25.1211C125.287 9.369 105.497 6.01838 87.9902 5.21094V5.21191Z" fill="#D2BEB3"/>
<path d="M1364.53 0C1381.83 5.82524e-05 1396.3 7.23686 1406.85 20.3535C1417.35 33.3979 1424.06 52.3103 1426.2 76.0605L1426.29 76.9971L1391.41 109.114L1392.56 101.858C1397.49 70.6308 1395.39 46.6921 1389.46 30.668C1386.5 22.6522 1382.62 16.7354 1378.33 12.8643C1374.06 9.01665 1369.48 7.26855 1364.93 7.26855C1359.78 7.26868 1354.83 9.57799 1350.2 14.5479C1345.54 19.5346 1341.44 26.9647 1338.06 36.5469C1331.3 55.6859 1327.61 82.8094 1327.61 114.446C1327.61 150.509 1332.46 177.415 1341.06 195.222C1349.67 213.05 1361.65 221.132 1375.66 221.132C1386.39 221.132 1395.82 215.224 1403.35 202.955C1410.88 190.704 1416.15 172.608 1418.67 149.519L1418.89 147.476H1428.07L1427.82 149.903C1424.87 178.436 1417.78 201.218 1407.17 216.941C1396.54 232.687 1382.11 241.687 1364.53 241.688C1342.25 241.688 1324.89 229.554 1313.24 208.604C1301.6 187.67 1295.36 157.496 1295.36 120.188C1295.36 83.1239 1301.6 53.2741 1313.25 32.6016C1324.91 11.9026 1342.28 0 1364.53 0ZM1009.23 0.984375C1036.54 0.984412 1056.58 4.35346 1069.87 11.3975C1083.38 18.5659 1089.54 29.3449 1089.54 43.251C1089.54 54.2351 1085.34 63.5088 1077.14 70.5254C1071.07 75.7226 1062.93 79.5712 1052.99 82.0029C1068.43 86.4146 1080.96 94.5624 1090.03 105.93C1101.1 119.8 1106.95 138.345 1106.95 160.543C1106.95 185.156 1098.3 205.234 1082.27 219.178C1066.22 233.141 1043.06 240.703 1014.7 240.703H968V0.984375H1009.23ZM1279.7 240.703H1247.08L1223.39 163.767H1163.98C1159.76 188.612 1157.7 213.424 1159.07 238.364L1159.2 240.703H1124.63L1185.82 40.9072L1185.82 40.9053L1198.08 0.984375H1206.25L1279.7 240.703ZM1497.77 78.6367L1527.78 51.9141C1544.85 36.6361 1553.67 21.651 1556.03 2.99609L1556.28 0.984375H1598.3L1515.94 73.1484C1517.11 73.0485 1518.3 73 1519.5 73C1526.95 73 1533.61 74.0285 1539.55 76.7285C1545.5 79.431 1550.5 83.6985 1554.87 89.8496C1563.26 101.652 1569.6 120.81 1575.88 150.537L1576.49 153.448C1583.8 188.99 1587.91 209.358 1592.39 220.895C1594.63 226.662 1596.83 229.845 1599.21 231.619C1601.43 233.283 1604.12 233.928 1608.18 233.928H1612.97V240.703H1602.31C1594.41 240.703 1587.42 239.205 1581.23 235.878C1575.07 232.567 1569.9 227.549 1565.4 220.76C1556.46 207.257 1549.88 186.257 1543.7 156.155C1537.41 125.756 1532.79 106.812 1527.83 95.4678C1525.35 89.7967 1522.88 86.2796 1520.32 84.1885C1517.89 82.2021 1515.27 81.4161 1512.01 81.416C1509.65 81.416 1507.27 82.2602 1505.15 83.4414C1503.05 84.6114 1501.47 85.97 1500.8 86.6455L1500.73 86.7188L1497.77 89.2559V240.703H1465.71V0.984375H1497.77V78.6367ZM1316.9 31.5693C1304.76 51.8661 1298.12 82.0677 1298.12 120.188C1298.12 194.5 1323.02 239.448 1364.53 239.448C1374.86 239.448 1384.16 236.094 1392.23 229.685C1384.16 236.093 1374.86 239.446 1364.53 239.446C1323.02 239.446 1298.12 194.498 1298.12 120.187C1298.12 82.0676 1304.76 51.8661 1316.9 31.5693ZM1128.17 238.464H1128.17L1133.21 222.014L1128.17 238.464ZM1468.48 238.464H1468.48V3.22656H1495V3.22461H1468.48V238.464ZM970.765 3.22461V238.464H970.766V3.22656H1009.23C1048.4 3.2266 1071.43 10.2375 1081.21 24.1338C1071.43 10.2361 1048.4 3.22466 1009.23 3.22461H970.765ZM1593.54 229.153C1597.22 234.621 1601.64 236.17 1608.18 236.17H1610.2V236.167H1608.18C1601.64 236.167 1597.22 234.619 1593.54 229.151L1593.54 229.153ZM1069.4 116.358C1074.25 128.313 1076.85 143.195 1076.85 160.543C1076.85 207.295 1053.17 235.839 1014.7 235.839H997.288V235.842H1014.7C1053.17 235.842 1076.86 207.298 1076.86 160.545C1076.86 143.195 1074.25 128.313 1069.4 116.358ZM1000.05 233.6H1014.7C1032.95 233.6 1047.66 226.874 1057.9 214.477C1068.23 201.99 1074.09 183.654 1074.09 160.543C1074.09 136.552 1069.06 117.578 1060.22 104.688C1051.43 91.8804 1038.99 85.1896 1023.81 85.1895C1014.31 85.1895 1006.53 84.3986 1000.05 82.5322V233.6ZM1395.81 226.564C1394.85 227.471 1393.88 228.332 1392.89 229.146C1393.88 228.333 1394.85 227.472 1395.81 226.565L1395.81 226.564ZM1400.94 220.999C1401.03 220.881 1401.13 220.763 1401.23 220.644L1401.23 220.642C1401.13 220.761 1401.03 220.88 1400.94 220.999ZM1402.76 218.657C1402.48 219.039 1402.19 219.415 1401.9 219.787C1402.36 219.196 1402.82 218.593 1403.26 217.977L1402.76 218.657ZM1566.01 216.771C1566.12 216.966 1566.24 217.16 1566.35 217.353C1566.24 217.16 1566.12 216.966 1566.01 216.771ZM1406.64 212.906C1406.15 213.705 1405.66 214.487 1405.15 215.252C1405.82 214.245 1406.47 213.209 1407.11 212.143L1406.64 212.906ZM1562.42 209.976C1562.72 210.612 1563.02 211.236 1563.33 211.85C1563.02 211.237 1562.72 210.613 1562.42 209.978L1562.42 209.976ZM1401.62 209.936C1401.47 210.121 1401.32 210.305 1401.17 210.487C1401.32 210.305 1401.47 210.121 1401.62 209.935L1401.62 209.936ZM1403.59 207.346C1403.38 207.639 1403.17 207.929 1402.96 208.215C1403.17 207.928 1403.38 207.639 1403.59 207.345L1403.59 207.346ZM1405.42 204.612C1405.07 205.166 1404.72 205.708 1404.36 206.238C1404.72 205.708 1405.07 205.166 1405.42 204.612ZM1407.15 201.695C1406.82 202.28 1406.49 202.853 1406.15 203.416C1406.49 202.853 1406.82 202.28 1407.15 201.695ZM1530.57 95.0342C1535.58 106.631 1540.21 125.71 1546.43 155.785C1550.16 173.997 1554.03 188.755 1558.43 200.484C1554.03 188.756 1550.16 173.998 1546.43 155.788C1540.21 125.71 1535.58 106.631 1530.57 95.0342ZM1421.42 149.716C1419.22 169.901 1414.91 186.458 1408.73 198.726C1414.91 186.458 1419.22 169.902 1421.42 149.716H1421.42ZM1224.74 158.902H1162.18V158.904H1224.74L1190.32 47.5186L1224.74 158.902ZM1190.44 57.1113C1180.97 90.4484 1171.52 123.561 1165.39 156.662H1221.2L1190.44 57.1113ZM1097.05 122.781C1097.15 123.019 1097.25 123.257 1097.35 123.497C1097.25 123.257 1097.15 123.019 1097.05 122.781ZM1092.88 114.632C1093.58 115.797 1094.24 116.989 1094.88 118.209C1094.24 116.989 1093.58 115.797 1092.88 114.632ZM1067.33 111.713C1067.79 112.641 1068.22 113.589 1068.65 114.558C1068.22 113.589 1067.79 112.641 1067.33 111.713ZM1090.65 111.124C1091.36 112.174 1092.05 113.25 1092.71 114.35C1092.05 113.25 1091.36 112.174 1090.65 111.124ZM1088.3 107.896C1088.83 108.586 1089.36 109.289 1089.86 110.003C1089.36 109.289 1088.83 108.586 1088.3 107.896ZM1064.77 106.957C1064.94 107.242 1065.11 107.53 1065.27 107.819C1065.11 107.53 1064.94 107.242 1064.77 106.957ZM1041.63 81.8037C1061.54 85.0313 1077.29 93.8959 1088 107.512C1077.29 93.8964 1061.55 85.0314 1041.63 81.8027C1041.63 81.803 1041.63 81.8035 1041.63 81.8037ZM1364.93 5.02734C1359.45 5.02734 1354.47 7.18165 1350.02 11.2002C1354.47 7.18255 1359.45 5.02843 1364.93 5.02832C1387 5.02832 1405.22 39.3138 1395.3 102.143L1423.44 76.2236L1423.44 76.2227L1395.3 102.142C1405.22 39.313 1387 5.02774 1364.93 5.02734ZM1555.53 95.7666C1556.59 97.613 1557.61 99.6098 1558.62 101.764C1557.73 99.8608 1556.83 98.0801 1555.9 96.418L1555.53 95.7666ZM1519.5 75.2393C1515.25 75.2393 1511.2 75.8946 1507.36 77.3691L1507.35 77.375C1511.2 75.8986 1515.25 75.2422 1519.5 75.2422C1534.8 75.2423 1545.56 79.7635 1554.25 93.625C1545.56 79.7616 1534.8 75.2393 1519.5 75.2393ZM1529.21 92.0908C1529.14 91.9486 1529.07 91.8065 1529 91.667L1529 91.6641C1529.07 91.8046 1529.14 91.9476 1529.21 92.0908ZM1558.78 3.22461C1556.35 22.4176 1547.24 37.8378 1529.83 53.4219L1495 84.4248V84.4287L1529.83 53.4238C1547.24 37.8397 1556.35 22.4197 1558.78 3.22656H1591.98L1591.98 3.22461H1558.78ZM1055.67 24.1758C1058.52 29.4086 1059.85 35.7682 1059.85 43.251C1059.85 66.053 1046.89 80.161 1023.81 80.1611C1012.47 80.1611 1003.97 79.0121 997.288 76.5518V76.5547C1003.97 79.0153 1012.47 80.1631 1023.81 80.1631C1046.89 80.163 1059.85 66.055 1059.85 43.2529C1059.85 35.7692 1058.52 29.4089 1055.67 24.1758ZM1000.05 75.0684C1006 76.9719 1013.62 77.9209 1023.81 77.9209C1034.58 77.9208 1042.75 74.6615 1048.3 68.8809C1053.93 63.0248 1057.08 54.3445 1057.08 43.251C1057.08 31.1852 1053.53 22.5953 1046.16 16.9736C1038.75 11.3226 1026.93 8.25298 1009.23 8.25293H1000.05V75.0684ZM1317.96 29.8408C1317.73 30.2091 1317.5 30.5818 1317.27 30.957C1317.5 30.5814 1317.73 30.2085 1317.96 29.8398L1317.96 29.8408ZM1081.51 24.5771C1082.67 26.2903 1083.63 28.1056 1084.4 30.0234C1083.63 28.1055 1082.67 26.2904 1081.51 24.5771ZM1321.49 24.7178C1321.2 25.0958 1320.92 25.4792 1320.64 25.8662C1320.92 25.4792 1321.2 25.0958 1321.49 24.7178ZM1325.28 20.0947C1324.11 21.3894 1322.99 22.7525 1321.89 24.1807C1322.99 22.7521 1324.11 21.3888 1325.28 20.0938L1325.28 20.0947ZM1054.93 22.9033C1055.06 23.1213 1055.19 23.3413 1055.32 23.5635C1055.19 23.3413 1055.06 23.1213 1054.93 22.9033ZM1343.57 18.8604C1343.38 19.1498 1343.19 19.4444 1343 19.7422C1343.19 19.4451 1343.38 19.1511 1343.57 18.8623L1343.57 18.8604ZM1345.5 16.1523C1345.58 16.0537 1345.65 15.9549 1345.73 15.8574L1345.73 15.8555C1345.65 15.9535 1345.58 16.0531 1345.5 16.1523ZM1199.66 5.12109L1200.24 3.22656H1204.09L1204.09 3.22461H1200.24L1199.66 5.12109Z" fill="#D2BEB3"/>
<path d="M247.26 343C270.96 343 289.513 354.914 301.982 375.604C314.439 396.275 321.146 426.123 321.146 463.188C321.146 500.497 314.439 530.669 301.988 551.602C289.532 572.543 270.987 584.687 247.26 584.688C223.328 584.688 204.669 572.554 192.152 551.604C179.645 530.67 172.938 500.497 172.938 463.188C172.938 426.124 179.646 396.274 192.159 375.602C204.689 354.903 223.355 343 247.26 343ZM399.992 517.65C399.992 533.125 404.383 544.834 412.296 552.624C420.118 560.324 431.647 564.46 446.838 564.46C462.839 564.46 474.86 560.298 482.961 552.595C491.148 544.81 495.642 533.116 495.642 517.65C495.642 460.514 495.618 403.782 470.773 346.925L469.489 343.984H505.933V517.65C505.933 538.748 500.105 555.496 488.614 567.021C477.027 578.642 459.944 584.687 438.354 584.688C415.112 584.688 396.737 578.692 384.247 567.086C371.836 555.553 365.555 538.778 365.555 517.65V343.984H399.992V517.65ZM97.9502 419.646C117.474 395.149 131.626 370.335 130.206 346.324L130.067 343.984H169.736L103.295 427.716V583.703H68.8574V430.018L0 343.984H37.835L97.9502 419.646ZM584.056 344.125V343.98H604.646C634.11 343.98 655.963 347.434 670.524 354.597C685.327 361.878 692.238 372.811 692.238 386.903C692.238 400.745 685.86 412.006 673.402 419.758C662.689 426.424 647.758 430.322 629.203 431.249C642.412 436.948 652.076 444.418 659.604 454.453C668.992 466.969 674.99 483.394 680.652 505.074L680.654 505.083C686.658 528.542 691.185 546.766 696.681 559.157C699.428 565.353 702.326 569.864 705.564 572.796C708.712 575.646 712.075 576.924 716.025 576.924H723.999V583.7H716.025C705.543 583.7 696.609 581.89 688.942 578.301C681.296 574.722 675.094 569.46 669.875 562.767C659.503 549.463 652.741 530.126 646.329 505.948C639.871 481.763 636.019 465.082 629.624 453.025C626.461 447.063 622.728 442.346 617.849 438.494C612.975 434.646 606.84 431.566 598.712 428.996L596.891 428.42V428.393C595.678 428.069 594.54 427.72 593.477 427.366V583.7H559.039V343.961L584.056 344.125ZM209.242 359.154C187.913 377.619 175.907 413.742 175.907 463.188C175.907 537.5 202.665 582.448 247.26 582.448C254.16 582.448 260.635 581.35 266.649 579.215L266.651 579.214C260.637 581.349 254.162 582.446 247.262 582.446C202.667 582.446 175.91 537.498 175.91 463.187C175.91 413.743 187.915 377.62 209.242 359.154ZM587.026 346.385L562.009 346.221V581.46H562.012V346.227L587.028 346.391V346.227H604.648C652.438 346.227 678.609 355.417 686.599 373.44C678.612 355.413 652.441 346.221 604.646 346.221H587.026V346.385ZM696.009 564.312C701.139 574.02 707.272 579.17 716.027 579.17H721.028V579.163H716.025C707.27 579.163 701.137 574.014 696.006 564.306L696.009 564.312ZM269.958 577.913C269.209 578.236 268.452 578.544 267.688 578.833C268.452 578.544 269.209 578.236 269.958 577.913ZM256.869 577.677C256.253 577.965 255.63 578.227 254.999 578.458C255.63 578.227 256.253 577.965 256.869 577.677ZM247.26 350.269C241.796 350.269 236.572 352.462 231.674 357.32C226.746 362.208 222.379 369.592 218.77 379.387C211.559 398.954 207.593 427.512 207.593 463.188C207.593 499.356 211.559 528.286 218.771 548.103C222.382 558.023 226.751 565.501 231.684 570.45C236.588 575.372 241.811 577.583 247.26 577.583C252.582 577.583 257.738 575.386 262.611 570.457C267.508 565.505 271.864 558.024 275.476 548.103C282.689 528.285 286.709 499.353 286.709 463.188C286.709 427.515 282.69 398.955 275.479 379.387C271.869 369.591 267.514 362.204 262.622 357.313C257.754 352.448 252.597 350.269 247.26 350.269ZM258.118 577.048C257.915 577.158 257.71 577.265 257.505 577.368C257.71 577.265 257.915 577.158 258.118 577.048ZM273.622 576.169C273.104 576.44 272.582 576.702 272.057 576.956C272.582 576.702 273.104 576.44 273.622 576.169ZM260.213 575.78C259.86 576.016 259.506 576.243 259.147 576.459C259.506 576.243 259.86 576.016 260.213 575.78ZM247.262 348.027C244.167 348.027 241.219 348.612 238.423 349.755C241.218 348.613 244.166 348.028 247.26 348.028C273.582 348.028 289.68 391.664 289.68 463.188C289.68 522.388 278.947 562.668 260.682 575.46C278.949 562.67 289.682 522.389 289.682 463.187C289.682 391.663 273.584 348.027 247.262 348.027ZM277.437 573.971C277.183 574.13 276.928 574.288 276.673 574.443C276.928 574.288 277.183 574.13 277.437 573.971ZM368.524 346.227H397.021V517.653C397.021 549.15 414.859 566.702 446.837 566.702C465.681 566.702 479.707 561.148 488.373 550.683L488.374 550.681C479.708 561.146 465.682 566.7 446.838 566.7C414.86 566.7 397.022 549.147 397.022 517.65V346.225H368.524V346.227ZM693.866 559.874C694.171 560.562 694.481 561.232 694.793 561.885C694.658 561.603 694.523 561.318 694.39 561.029L693.866 559.874ZM491.682 559.188C491.542 559.386 491.402 559.583 491.26 559.778C491.402 559.583 491.542 559.386 491.682 559.188ZM493.699 556.093C493.531 556.372 493.36 556.65 493.188 556.925C493.36 556.65 493.531 556.372 493.699 556.093ZM495.644 552.58C495.269 553.319 494.881 554.045 494.479 554.758C494.881 554.045 495.269 553.319 495.644 552.58ZM691.317 553.557C691.356 553.66 691.395 553.762 691.434 553.864C691.395 553.76 691.354 553.656 691.315 553.551L691.317 553.557ZM497.539 548.433C497.115 549.464 496.667 550.473 496.194 551.46C496.667 550.473 497.115 549.464 497.539 548.433ZM491.969 545.542C491.063 547.085 490.066 548.547 488.98 549.928C490.182 548.399 491.276 546.771 492.257 545.044L491.969 545.542ZM473.596 346.227H502.961V517.653C502.961 529.012 501.248 538.993 497.913 547.504C501.249 538.993 502.963 529.01 502.963 517.65V346.225H473.595L473.596 346.227ZM492.988 543.695C493.021 543.633 493.054 543.571 493.086 543.509L493.087 543.506C493.054 543.569 493.021 543.632 492.988 543.695ZM659.054 536.746C659.448 537.757 659.846 538.753 660.251 539.732C659.846 538.753 659.448 537.757 659.054 536.746ZM657.421 532.4C657.706 533.191 657.996 533.972 658.287 534.745C657.997 533.972 657.706 533.191 657.421 532.4ZM635.27 458.312C640.193 469.975 643.827 485.231 649.241 505.508C651.785 515.101 654.375 523.874 657.199 531.777C654.376 523.876 651.788 515.104 649.244 505.514C643.829 485.233 640.194 469.976 635.27 458.312ZM617.049 429.233C642.772 437.449 656.6 450.19 666.443 471.76C656.602 450.192 642.779 437.45 617.066 429.233H617.049ZM599.86 426.931H599.863V426.772L599.86 426.771V426.931ZM658.968 374.154C660.181 377.974 660.771 382.225 660.771 386.903C660.771 411.51 646.631 426.603 620.309 426.603C607.91 426.603 598.122 424.797 590.509 421.188V421.195C598.123 424.804 607.912 426.608 620.312 426.608C646.633 426.608 660.773 411.516 660.773 386.909C660.773 382.228 660.182 377.976 658.968 374.154ZM593.477 419.917C600.291 422.829 609.056 424.362 620.309 424.362C632.626 424.362 641.825 420.868 648.037 414.635C654.339 408.311 657.801 398.926 657.801 386.903C657.801 374.712 653.686 365.952 645.382 360.192C637.024 354.397 623.868 351.249 604.646 351.249H593.477V419.917ZM5.26367 346.227H36.1523L97.9326 423.983C118.807 398.404 134.682 372.005 133.175 346.261C134.68 372.004 118.806 398.403 97.9326 423.981L36.1514 346.225H5.26172L5.26367 346.227ZM686.778 373.854C686.901 374.142 687.02 374.432 687.133 374.725C687.02 374.432 686.901 374.143 686.778 373.854ZM658.871 373.854C658.845 373.775 658.82 373.695 658.793 373.615L658.79 373.608C658.818 373.69 658.844 373.772 658.871 373.854ZM658.358 372.408C658.333 372.342 658.309 372.276 658.283 372.21L658.28 372.204C658.307 372.272 658.332 372.34 658.358 372.408ZM210.867 357.795C210.478 358.109 210.092 358.43 209.709 358.755C210.092 358.43 210.478 358.109 210.867 357.795ZM212.989 356.163C212.399 356.596 211.816 357.042 211.238 357.5C211.816 357.042 212.399 356.596 212.989 356.163ZM215.666 354.31C215.495 354.421 215.326 354.534 215.156 354.647C215.327 354.534 215.497 354.42 215.668 354.309L215.666 354.31ZM231.267 354.169C231.283 354.155 231.298 354.141 231.314 354.128L231.316 354.126C231.3 354.14 231.283 354.155 231.267 354.169ZM217.298 353.288C217.293 353.291 217.287 353.295 217.282 353.298C217.288 353.294 217.294 353.291 217.3 353.287L217.298 353.288ZM233.655 352.345C233.743 352.284 233.831 352.223 233.919 352.164L233.921 352.162C233.832 352.222 233.744 352.284 233.655 352.345ZM236.633 350.572C236.816 350.479 237.001 350.389 237.186 350.301L237.188 350.299C237.002 350.387 236.817 350.479 236.633 350.572ZM133.173 346.227H164.496L164.498 346.225H133.173V346.227Z" fill="#D2BEB3"/>
<path d="M1047.91 342C1062.81 342 1076.87 344.823 1088.34 351.723C1099.79 358.613 1108.33 369.372 1112.74 384.809L1113.05 385.91L1073.13 417.296L1074.33 410.247C1078.16 387.779 1076.91 372.346 1071.82 362.629C1069.3 357.814 1065.9 354.513 1061.84 352.407C1057.81 350.311 1052.88 349.269 1046.98 349.269C1038.57 349.269 1031.52 351.577 1026.51 355.925C1021.45 360.318 1018.25 366.987 1018.25 375.9C1018.25 388.432 1024.68 400.409 1034.6 412.417C1044.53 424.449 1057.8 436.31 1071.27 448.685C1098.02 473.243 1125.61 499.785 1125.61 532.07C1125.61 548.883 1117.97 562.174 1104.74 571.261C1091.52 580.336 1073.02 585 1051.87 585C1028.13 585 1008.48 579.16 994.106 567.85C979.799 556.594 970.966 540.127 968.131 519.159L968 518.195L1007.98 486.182L1006.82 493.283C1002.31 520.998 1005.09 542.346 1013.33 556.655C1021.51 570.849 1034.86 577.895 1051.87 577.896C1063.06 577.896 1072.97 574.734 1080.15 568.548C1087.36 562.326 1092 552.867 1092 540.108C1092 510.403 1066.18 486.062 1039.46 461.903C1026.21 449.921 1012.75 437.978 1002.63 425.631C992.5 413.255 985.581 400.303 985.581 386.235C985.581 373.866 991.219 362.785 1001.96 354.778C1012.74 346.753 1028.4 342 1047.91 342ZM1203.26 421.293L1237.78 394.57C1257.41 379.292 1267.55 364.307 1270.27 345.652L1270.56 343.641H1318.89L1224.16 415.805C1225.51 415.705 1226.88 415.656 1228.25 415.656C1236.82 415.656 1244.48 416.685 1251.32 419.385C1258.16 422.087 1263.91 426.355 1268.94 432.506C1278.58 444.308 1285.88 463.467 1293.1 493.193L1293.8 496.104C1302.21 531.647 1306.94 552.015 1312.09 563.551C1314.67 569.318 1317.2 572.501 1319.93 574.275C1322.5 575.939 1325.58 576.584 1330.25 576.584H1335.76V583.359H1323.5C1314.41 583.359 1306.37 581.861 1299.25 578.534C1292.17 575.224 1286.22 570.205 1281.05 563.416C1270.76 549.914 1263.19 528.913 1256.09 498.812C1248.86 468.413 1243.54 449.468 1237.83 438.124C1234.98 432.453 1232.14 428.936 1229.2 426.845C1226.4 424.858 1223.39 424.072 1219.64 424.072C1216.93 424.072 1214.18 424.916 1211.75 426.098C1209.33 427.268 1207.52 428.626 1206.75 429.302L1206.67 429.375L1203.26 431.912V583.359H1166.39V343.641H1203.26V421.293ZM1398.28 583.359H1361.41V343.641H1398.28V583.359ZM1483.36 345.65C1484.61 354.184 1489.41 362.818 1495.17 371.406L1496.33 373.123L1496.33 373.125L1597.68 521.48C1596.38 463.059 1591.1 404.645 1570.49 346.422L1569.51 343.641H1608.43V583.359H1599.29L1471.83 396.077C1472.65 457.807 1477.34 519.361 1499.11 580.575L1500.1 583.359H1461.18V380.512L1436.02 343.641H1483.06L1483.36 345.65ZM1364.59 345.883H1395.09V581.12H1395.1V345.881H1364.59V345.883ZM1464.36 380.002V581.12H1464.36V380.004L1441.07 345.883H1480.19V345.881H1441.07L1464.36 380.002ZM1015 564.16C1023.69 574.643 1036.27 580.138 1051.87 580.138C1076.09 580.138 1095.18 566.358 1095.18 540.111C1095.18 531.76 1093.2 523.832 1089.78 516.228C1093.2 523.831 1095.18 531.759 1095.18 540.108C1095.18 566.355 1076.09 580.136 1051.87 580.136C1036.27 580.136 1023.69 574.641 1015 564.16ZM1308.63 563.245C1313.99 575.796 1319.73 578.826 1330.25 578.826H1332.58V578.823H1330.25C1319.73 578.823 1313.99 575.794 1308.63 563.245ZM1009 554.93C1010.58 558.046 1012.39 560.885 1014.42 563.44C1012.39 560.885 1010.58 558.045 1009 554.93ZM1304.8 552.531C1306.02 556.458 1307.2 559.824 1308.41 562.706C1307.2 559.824 1306.02 556.458 1304.8 552.531ZM988.5 558.867C988.862 559.273 989.229 559.673 989.602 560.068C989.229 559.673 988.862 559.273 988.5 558.867ZM984.405 553.766C985.153 554.803 985.928 555.814 986.731 556.798C985.928 555.814 985.153 554.803 984.405 553.766ZM1302.86 545.946C1303.27 547.431 1303.68 548.851 1304.09 550.209C1303.68 548.851 1303.27 547.431 1302.86 545.946ZM980.395 547.459C980.636 547.892 980.883 548.322 981.133 548.747C980.883 548.322 980.636 547.892 980.395 547.459ZM976.018 538.02C977.051 540.748 978.22 543.358 979.523 545.848C978.22 543.358 977.051 540.748 976.018 538.02ZM1297.59 525.527C1299.02 531.4 1300.34 536.647 1301.59 541.332C1300.34 536.647 1299.02 531.399 1297.59 525.525V525.527ZM971.295 518.947C972.186 525.536 973.676 531.644 975.734 537.26C973.677 531.645 972.187 525.537 971.297 518.949L1003.66 493.032C1003.66 493.031 1003.66 493.03 1003.66 493.028L971.295 518.947ZM1269.89 535.258C1270.12 535.89 1270.35 536.515 1270.59 537.132C1270.35 536.515 1270.12 535.89 1269.89 535.258ZM1574.61 348.848C1595.61 409.708 1600.14 470.723 1601.05 531.578L1493.47 374.096L1492.3 372.372C1492.69 372.949 1493.08 373.524 1493.47 374.099L1601.06 531.581C1600.14 470.724 1595.61 409.709 1574.61 348.848ZM1290.66 496.476C1292.46 504.072 1294.09 510.986 1295.6 517.276C1294.09 510.985 1292.46 504.07 1290.66 496.473C1290.49 495.737 1290.31 495.008 1290.14 494.285C1290.31 495.009 1290.49 495.739 1290.66 496.476ZM1088.84 514.232C1088.98 514.517 1089.12 514.803 1089.25 515.089C1088.91 514.371 1088.56 513.654 1088.2 512.941L1088.84 514.232ZM1084.3 506.109C1084.88 507.026 1085.44 507.946 1085.98 508.871C1085.44 507.946 1084.88 507.026 1084.3 506.109ZM1113.57 500.659C1114.32 501.999 1115.02 503.348 1115.68 504.707C1115.02 503.348 1114.32 501.999 1113.57 500.659ZM1079.27 498.812C1080.4 500.321 1081.48 501.843 1082.52 503.376C1081.48 501.843 1080.4 500.321 1079.27 498.812ZM1112.02 497.975C1112.29 498.42 1112.55 498.866 1112.81 499.313C1112.55 498.866 1112.29 498.42 1112.02 497.975ZM1256.6 487.579C1257.13 489.725 1257.66 491.936 1258.21 494.214C1257.66 491.937 1257.13 489.726 1256.6 487.581L1256.6 487.579ZM1074.29 492.558C1074.48 492.786 1074.67 493.016 1074.86 493.245C1074.67 493.016 1074.48 492.786 1074.29 492.558ZM1288.08 486.059C1288.56 487.925 1289.05 489.838 1289.53 491.801C1289.05 489.838 1288.56 487.925 1288.08 486.059ZM1106.79 490.068C1107.1 490.497 1107.4 490.928 1107.71 491.358C1107.4 490.928 1107.1 490.497 1106.79 490.068ZM1103.63 485.883C1104.2 486.61 1104.77 487.341 1105.32 488.073C1104.77 487.341 1104.2 486.61 1103.63 485.883ZM1101.84 483.641C1102.38 484.304 1102.92 484.969 1103.44 485.636C1102.92 484.969 1102.38 484.304 1101.84 483.641ZM1228.25 417.896C1223.37 417.896 1218.71 418.55 1214.29 420.025L1214.28 420.031C1218.71 418.555 1223.36 417.898 1228.25 417.898C1258.7 417.898 1273.53 431.44 1287.41 483.501C1273.53 431.438 1258.7 417.896 1228.25 417.896ZM1099.99 481.41C1100.41 481.904 1100.82 482.399 1101.23 482.895C1100.82 482.399 1100.41 481.904 1099.99 481.41ZM1033.76 415.805C1051.82 436.793 1079.24 457.312 1098.81 480.021C1079.24 457.312 1051.82 436.793 1033.76 415.805ZM1251.97 469.6C1251.9 469.344 1251.84 469.088 1251.77 468.835L1251.77 468.833C1251.84 469.087 1251.9 469.343 1251.97 469.6ZM1245.28 447.907C1245.23 447.782 1245.19 447.656 1245.14 447.531L1245.14 447.529C1245.19 447.655 1245.23 447.781 1245.28 447.907ZM1014.04 434.215C1014.59 434.787 1015.14 435.359 1015.7 435.93C1015.14 435.359 1014.59 434.787 1014.04 434.215ZM1273.43 345.881C1270.64 365.074 1260.16 380.494 1240.13 396.078L1200.08 427.082V427.085L1240.13 396.08C1260.16 380.496 1270.64 365.076 1273.43 345.883H1311.62L1311.62 345.881H1273.43ZM1004.86 423.857C1005.42 424.546 1005.98 425.234 1006.56 425.921C1005.98 425.234 1005.42 424.546 1004.86 423.857ZM998.916 415.797C999.175 416.187 999.437 416.577 999.704 416.966C999.437 416.577 999.175 416.187 998.916 415.797ZM1027.21 407.567C1028.95 409.963 1030.83 412.35 1032.84 414.729C1030.83 412.35 1028.95 409.963 1027.21 407.567ZM995.246 409.705C995.921 410.954 996.641 412.196 997.404 413.434C996.641 412.196 995.92 410.954 995.246 409.705ZM1076.78 366.406C1080.39 376.586 1080.8 391.065 1077.48 410.514L1077.49 410.511C1080.8 391.063 1080.39 376.585 1076.78 366.406ZM992.473 403.897C993.017 405.212 993.616 406.518 994.266 407.818C993.616 406.518 993.017 405.212 992.473 403.897ZM1021.43 398.483C1022.71 400.84 1024.16 403.182 1025.76 405.514C1024.16 403.183 1022.71 400.84 1021.43 398.483ZM1047.91 344.24C1010.42 344.24 988.761 362.449 988.761 386.235C988.761 391.936 989.942 397.464 992.054 402.864C989.942 397.465 988.762 391.937 988.762 386.237C988.762 362.451 1010.42 344.242 1047.91 344.242C1067.55 344.242 1085.21 349.331 1097.16 362.254C1085.21 349.329 1067.55 344.24 1047.91 344.24ZM1105.26 374.009C1105.34 374.155 1105.41 374.302 1105.49 374.45C1105.41 374.302 1105.34 374.155 1105.26 374.009ZM1100.94 366.883C1101.93 368.258 1102.87 369.704 1103.75 371.224C1102.87 369.704 1101.93 368.258 1100.94 366.883ZM1489.02 367.277C1489.22 367.607 1489.42 367.936 1489.63 368.265C1489.42 367.936 1489.22 367.607 1489.02 367.277ZM1075.73 363.765C1076.03 364.449 1076.32 365.157 1076.59 365.887C1076.32 365.157 1076.03 364.449 1075.73 363.765ZM1099.21 364.63C1099.39 364.849 1099.57 365.071 1099.74 365.294C1099.57 365.071 1099.39 364.849 1099.21 364.63ZM1097.24 362.34C1097.83 362.992 1098.42 363.664 1098.99 364.355C1098.42 363.663 1097.83 362.992 1097.24 362.34ZM1075.05 362.339C1075.19 362.599 1075.31 362.863 1075.44 363.131C1075.31 362.863 1075.19 362.599 1075.05 362.339ZM1073.22 359.17C1073.61 359.756 1073.98 360.364 1074.34 360.995C1073.98 360.364 1073.61 359.756 1073.22 359.17ZM1072.43 358.048C1072.55 358.213 1072.67 358.38 1072.79 358.549C1072.67 358.38 1072.55 358.213 1072.43 358.048ZM1574.42 348.282C1574.14 347.483 1573.86 346.682 1573.58 345.883H1605.25V345.881H1573.58C1573.86 346.681 1574.14 347.482 1574.42 348.282ZM1169.57 345.883H1200.08V345.881H1169.57V345.883Z" fill="#D2BEB3"/>
</svg>
