<svg width="668" height="864" viewBox="0 0 668 864" fill="none" xmlns="http://www.w3.org/2000/svg">
<path d="M174.81 133.146C174.81 145.01 178.304 153.987 184.602 159.959C190.827 165.862 200.002 169.032 212.091 169.032C224.825 169.032 234.391 165.842 240.838 159.937C247.353 153.969 250.93 145.003 250.93 133.146C250.93 89.3433 250.911 45.8509 231.139 2.26172L230.116 0.0078125H259.119V133.146C259.119 149.321 254.481 162.161 245.337 170.996C236.116 179.905 222.521 184.54 205.339 184.54C186.842 184.54 172.219 179.943 162.279 171.046C152.402 162.205 147.403 149.344 147.403 133.146V0.0078125H174.81V133.146ZM321.29 0.125977V0.0146484H337.676C361.123 0.0146484 378.515 2.66346 390.104 8.1543C401.883 13.7361 407.384 22.1174 407.384 32.9209C407.384 43.5327 402.308 52.1664 392.394 58.1094C383.868 63.2201 371.985 66.2074 357.219 66.918C367.73 71.2869 375.422 77.0139 381.412 84.707C388.884 94.3025 393.657 106.895 398.164 123.516L398.165 123.522C402.943 141.507 406.546 155.478 410.919 164.978C413.106 169.727 415.411 173.185 417.988 175.433C420.493 177.617 423.17 178.598 426.313 178.598H432.659V183.793H426.313C417.971 183.793 410.862 182.405 404.761 179.653C398.676 176.909 393.74 172.875 389.587 167.744C381.332 157.545 375.952 142.721 370.849 124.186C365.709 105.644 362.644 92.8557 357.555 83.6123C355.038 79.0412 352.066 75.426 348.183 72.4727C344.304 69.5227 339.422 67.161 332.953 65.1904L331.504 64.749V64.7285C330.539 64.4804 329.634 64.2125 328.787 63.9414V183.793H301.381V0L321.29 0.125977ZM119.68 24.3096L115.559 20.9834C101.417 9.5687 86.7773 6.64947 73.4561 5.83398V183.785H46.0498V5.83496C32.7651 6.66216 18.2647 9.68026 4.1123 20.9893L0 24.2764V0.0078125H119.68V24.3096ZM466.133 1.54785C467.064 8.08986 470.633 14.7096 474.913 21.2939L475.778 22.6104V22.6113L551.125 136.347C550.157 91.5582 546.23 46.7758 530.909 2.13965L530.177 0.0078125H559.11V183.785H552.315L457.565 40.208C458.175 87.5319 461.656 134.721 477.847 181.65L478.583 183.785H449.646V28.2744L430.938 0.0078125H465.913L466.133 1.54785ZM326.42 182.07H303.744V182.075H326.423V61.2178C328.5 61.9721 330.923 62.8517 333.864 63.4805V63.4756C330.921 62.8468 328.497 61.9665 326.42 61.2119V182.07ZM387.013 160.198C395.476 174.406 407.124 182.075 426.313 182.075H430.296V180.314H430.292V182.07H426.311C407.123 182.07 395.476 174.403 387.013 160.198ZM71.0908 182.068H71.0928V3.99023H71.0908V182.068ZM452.009 27.8838V182.068H452.011V27.8848L437.311 5.67383L452.009 27.8838ZM235.629 175.826C235.412 175.951 235.192 176.074 234.972 176.196C235.193 176.074 235.413 175.951 235.631 175.825L235.629 175.826ZM240.752 172.334C240.614 172.445 240.475 172.555 240.335 172.664C240.475 172.555 240.614 172.445 240.752 172.334ZM233.385 1.72656H256.753V133.148C256.753 150.31 251.456 163.369 241.427 171.781C251.458 163.369 256.756 150.309 256.756 133.146V1.72461H233.384L233.385 1.72656ZM239.178 163.773C232.426 168.355 223.337 170.75 212.091 170.75C186.642 170.75 172.445 157.293 172.445 133.146V1.72461H149.767V1.72656H172.443V133.148C172.443 157.295 186.639 170.751 212.088 170.751C223.335 170.751 232.426 168.356 239.178 163.773ZM384.933 94.1699C389.259 102.171 392.607 111.91 395.842 123.842C401.079 143.555 404.955 158.664 410.032 168.271C404.957 158.664 401.081 143.557 395.845 123.848C392.609 111.916 389.262 102.176 384.936 94.1748L384.933 94.1699ZM242.689 161.003C242.162 161.486 241.613 161.95 241.047 162.398C241.845 161.765 242.608 161.1 243.331 160.397L242.689 161.003ZM533.202 1.72461C549.475 49.137 552.938 96.6755 553.631 144.088L553.632 144.09C552.939 96.6774 549.477 49.139 533.204 1.72656H556.747V1.72461H533.202ZM382.439 89.9307C382.282 89.6851 382.126 89.4401 381.967 89.1982L381.963 89.1934C382.124 89.437 382.281 89.6834 382.439 89.9307ZM333.867 63.6074C346.704 67.5181 353.913 73.0418 359.062 81.7734C353.913 73.0393 346.705 67.513 333.867 63.6016V63.6074ZM402.196 21.2119C404.092 24.6625 405.017 28.5654 405.017 32.916C405.016 53.2893 385.627 65.3623 350.138 65.3623H347.541C347.547 65.3642 347.553 65.3663 347.56 65.3682H350.141C385.63 65.3682 405.021 53.2944 405.021 32.9209C405.02 28.4094 404.026 24.3794 401.985 20.8359L402.196 21.2119ZM328.787 58.2305C334.21 60.4633 341.186 61.6387 350.141 61.6387C359.943 61.6387 367.263 58.9604 372.207 54.1816C377.222 49.3334 379.978 42.1381 379.978 32.9209C379.977 23.5748 376.704 16.8586 370.095 12.4434C363.444 8.00011 352.973 5.58691 337.676 5.58691H328.787V58.2305ZM326.42 59.2002L326.423 59.2012V3.87012H337.676C360.392 3.87012 373.723 9.08426 379.281 19.3643C373.725 9.08055 360.394 3.86426 337.673 3.86426H326.42V59.2002ZM2.36328 1.72656H117.314V19.834L117.315 19.835V1.72461H2.36328V1.72656ZM434.698 1.72656H463.781V1.72461H434.697L434.698 1.72656ZM239.919 163.256L239.921 163.254C239.712 163.405 239.499 163.553 239.285 163.699C239.498 163.553 239.71 163.406 239.919 163.256Z" fill="#D2BEB3"/>
<path d="M345.836 452.969C360.838 452.969 373.379 458.494 382.529 468.51C391.629 478.47 397.441 492.91 399.301 511.045L399.374 511.761L369.145 536.284L370.137 530.743C374.411 506.899 372.591 488.62 367.454 476.385C364.884 470.265 361.523 465.748 357.799 462.792C354.097 459.854 350.13 458.519 346.188 458.519C341.718 458.519 337.434 460.282 333.413 464.077C329.379 467.885 325.822 473.558 322.889 480.874C317.029 495.488 313.832 516.198 313.832 540.354C313.832 567.89 318.039 588.435 325.492 602.031C332.955 615.645 343.344 621.815 355.489 621.815C364.787 621.815 372.964 617.305 379.495 607.937C386.017 598.582 390.586 584.765 392.769 567.135L392.961 565.575H400.92L400.702 567.429C398.143 589.215 391.998 606.61 382.8 618.616C373.588 630.639 361.076 637.512 345.836 637.512C326.527 637.512 311.474 628.246 301.375 612.25C291.284 596.265 285.872 573.227 285.872 544.739C285.872 516.439 291.284 493.646 301.38 477.861C311.489 462.057 326.549 452.969 345.836 452.969ZM37.8369 453.715C61.5109 453.715 78.8866 456.288 90.3994 461.666C102.115 467.139 107.455 475.37 107.455 485.988C107.455 494.375 103.813 501.456 96.7061 506.813C91.4418 510.782 84.3857 513.72 75.7686 515.577C89.1573 518.946 100.016 525.167 107.882 533.847C117.48 544.438 122.549 558.597 122.549 575.547C122.549 594.34 115.046 609.671 101.152 620.317C87.2396 630.979 67.1648 636.754 42.5762 636.754H2.09375V453.715H37.8369ZM272.303 636.754H244.023L223.488 578.009H171.985C168.332 596.98 166.54 615.924 167.729 634.968L167.841 636.754H137.876L190.916 484.198V484.197L201.549 453.715H208.631L272.303 636.754ZM461.336 513.007L487.355 492.603C502.151 480.937 509.795 469.495 511.842 455.251L512.062 453.715H548.489L477.087 508.816C478.107 508.74 479.137 508.703 480.176 508.703C486.634 508.703 492.405 509.488 497.559 511.55C502.717 513.613 507.051 516.872 510.84 521.568C518.109 530.58 523.611 545.209 529.051 567.907L529.577 570.13C535.915 597.268 539.48 612.82 543.364 621.629C545.306 626.033 547.216 628.463 549.274 629.817C551.205 631.088 553.53 631.58 557.051 631.58H561.202V636.754H551.961C545.115 636.754 539.053 635.61 533.688 633.069C528.35 630.542 523.867 626.71 519.969 621.526C512.216 611.216 506.509 595.181 501.156 572.196C495.706 548.985 491.699 534.52 487.396 525.858C485.244 521.528 483.106 518.843 480.888 517.246C478.78 515.729 476.512 515.129 473.683 515.129C471.641 515.129 469.572 515.774 467.735 516.676C465.916 517.569 464.548 518.606 463.97 519.122L463.907 519.178L461.336 521.115V636.754H433.551V453.715H461.336V513.007ZM291.707 509.107C289.445 519.655 288.269 531.579 288.269 544.739C288.269 601.481 309.856 635.801 345.836 635.801C369.53 635.801 386.977 617.877 394.908 586.243L394.913 586.221C386.982 617.855 369.536 635.778 345.842 635.778C309.862 635.778 288.274 601.458 288.273 544.717C288.273 531.567 289.448 519.65 291.707 509.107ZM120.149 576.125C119.835 612.724 90.4088 635.029 42.5762 635.029H4.49023V635.044H42.5762C90.4151 635.044 119.843 612.733 120.149 576.125ZM140.939 635.044H165.335C165.335 635.039 165.334 635.034 165.334 635.029H140.944L140.939 635.044ZM169.9 576.283C168.498 583.382 167.351 590.481 166.517 597.585C167.351 590.486 168.497 583.392 169.898 576.299H225.36L245.896 635.044H269.238L269.233 635.029H245.896L225.362 576.283H169.9ZM435.947 635.044H458.939V635.029H435.957V455.425H435.947V635.044ZM473.692 513.404C468.251 513.404 463.513 516.786 462.108 518.039L458.949 520.419V520.426L462.099 518.054C463.503 516.801 468.242 513.419 473.683 513.419C487.372 513.419 492.638 525.569 503.52 571.914C514.226 617.884 526.161 635.044 551.961 635.044H558.806V635.029H551.971C526.17 635.029 514.236 617.869 503.529 571.899C492.648 525.554 487.382 513.404 473.692 513.404ZM29.8779 631.33H42.5762C58.4027 631.33 71.1468 626.194 80.0312 616.729C88.9795 607.195 94.0615 593.194 94.0615 575.547C94.0615 557.228 89.7031 542.741 82.0342 532.898C74.4147 523.119 63.6316 518.011 50.4736 518.011C42.2352 518.011 35.497 517.407 29.8779 515.981V631.33ZM165.839 604.124C165.849 604.013 165.858 603.901 165.868 603.79L165.869 603.774C165.859 603.891 165.849 604.008 165.839 604.124ZM395.155 567.285C394.379 573.553 393.3 579.362 391.935 584.679C393.301 579.362 394.382 573.553 395.158 567.285H395.155ZM27.4824 513.419L28.0293 513.604C33.7366 515.477 40.9521 516.3 50.4736 516.3C78.9066 516.3 96.458 538.596 96.458 575.547C96.458 575.98 96.4543 576.412 96.4482 576.841C96.4544 576.407 96.459 575.971 96.459 575.532C96.459 538.581 78.9075 516.285 50.4746 516.285C40.646 516.285 33.2743 515.408 27.4824 513.404V513.419ZM194.822 489.229C185.696 517.663 176.219 545.971 170.427 574.279H170.428C176.22 545.976 185.696 517.673 194.821 489.244L224.653 574.279H224.66L194.822 489.229ZM194.921 496.57C186.718 522.025 178.526 547.309 173.204 572.584H221.588L194.921 496.57ZM346.192 456.785C332.721 456.785 322.694 470.011 316.958 491.442C322.695 470.024 332.72 456.809 346.188 456.809C365.318 456.809 381.114 482.988 372.514 530.961L396.91 511.17C396.91 511.164 396.909 511.159 396.908 511.153L372.52 530.938C381.12 482.965 365.323 456.785 346.192 456.785ZM105.018 487.473C104.173 502.662 90.3968 512.618 65.9199 515.408C65.9375 515.411 65.9551 515.413 65.9727 515.416C90.4242 512.617 104.182 502.659 105.018 487.473ZM29.8779 510.282C35.0383 511.736 41.6385 512.461 50.4736 512.461C59.8107 512.461 66.8934 509.972 71.7061 505.558C76.5813 501.086 79.3192 494.459 79.3193 485.988C79.3193 476.775 76.2413 470.216 69.8496 465.924C63.4243 461.609 53.1805 459.265 37.8369 459.265H29.8779V510.282ZM469.655 512.026C469.661 512.025 469.666 512.022 469.671 512.021L543.01 455.425H543.001L469.655 512.026ZM292.449 505.854C292.305 506.447 292.166 507.046 292.029 507.648C292.089 507.387 292.148 507.125 292.209 506.865L292.449 505.854ZM27.4824 457.555H37.8369C69.0781 457.555 81.7148 467.074 81.7148 485.988C81.7148 486.124 81.7123 486.259 81.7109 486.394C81.7124 486.254 81.7158 486.113 81.7158 485.973C81.7157 467.059 69.0787 457.539 37.8379 457.539H27.4824V457.555ZM514.226 455.425C513.191 462.622 510.759 469.124 506.765 475.288C510.762 469.124 513.197 462.622 514.233 455.425H514.226Z" fill="#D2BEB3"/>
<path d="M398.941 359.847C398.941 371.662 402.332 380.602 408.443 386.551C414.484 392.43 423.387 395.588 435.118 395.588C447.475 395.588 456.758 392.41 463.015 386.528C469.337 380.584 472.808 371.655 472.808 359.847C472.808 316.219 472.789 272.901 453.603 229.487L452.61 227.242H480.755V359.847C480.755 375.956 476.254 388.743 467.38 397.543C458.432 406.417 445.239 411.033 428.566 411.033C410.618 411.033 396.428 406.455 386.782 397.594C377.197 388.788 372.347 375.979 372.347 359.847V227.242H398.941V359.847ZM280.989 226.488C299.292 226.488 313.62 235.585 323.249 251.384C332.869 267.167 338.049 289.958 338.049 318.259C338.049 346.747 332.869 369.784 323.254 385.768C313.634 401.758 299.312 411.031 280.989 411.031C262.508 411.031 248.099 401.766 238.433 385.77C228.774 369.785 223.594 346.746 223.594 318.259C223.594 289.958 228.774 267.166 238.438 251.381C248.114 235.576 262.528 226.488 280.989 226.488ZM541.084 227.367V227.257H556.985C579.738 227.257 596.614 229.895 607.859 235.363C619.291 240.923 624.628 249.271 624.628 260.031C624.628 270.6 619.702 279.199 610.082 285.118C601.809 290.208 590.278 293.184 575.949 293.892C586.15 298.243 593.614 303.947 599.427 311.609C606.677 321.166 611.308 333.708 615.682 350.262L615.683 350.269C620.319 368.181 623.816 382.095 628.06 391.557C630.181 396.288 632.418 399.732 634.919 401.971C637.35 404.147 639.947 405.123 642.998 405.123H649.155V410.297H642.998C634.903 410.297 628.004 408.914 622.083 406.174C616.178 403.441 611.388 399.423 607.358 394.312C599.348 384.155 594.127 369.389 589.175 350.929C584.188 332.462 581.213 319.725 576.274 310.519C573.832 305.966 570.948 302.365 567.181 299.424C563.417 296.486 558.679 294.134 552.402 292.171L550.995 291.731V291.711C550.059 291.464 549.181 291.197 548.359 290.927V410.297H521.765V227.242L541.084 227.367ZM165.687 285.015C180.764 266.309 191.693 247.362 190.597 229.028L190.489 227.242H221.124L169.814 291.177V410.281H143.22V292.934L90.0439 227.242H119.263L165.687 285.015ZM278.247 409.245C278.677 409.269 279.11 409.287 279.545 409.299C279.11 409.286 278.677 409.269 278.247 409.245ZM280.989 228.198C246.551 228.198 225.888 261.893 225.888 318.259C225.888 371.457 244.051 404.946 274.701 408.921C244.056 404.941 225.896 371.453 225.896 318.26C225.896 261.894 246.559 228.2 280.997 228.199C281.245 228.199 281.493 228.201 281.739 228.204C281.49 228.2 281.24 228.198 280.989 228.198ZM524.059 408.587H546.065V408.576H524.059V408.587ZM546.065 288.214C548.081 288.965 550.433 289.842 553.289 290.469V290.594C579.328 298.735 581.512 313.892 591.424 350.593C601.335 387.543 612.087 408.587 642.998 408.587H646.862V408.576H642.998C612.087 408.576 601.335 387.533 591.424 350.582C581.512 313.882 579.329 298.726 553.29 290.584V290.458C550.434 289.832 548.081 288.956 546.065 288.204V288.214ZM283.335 230.479C302.269 232.963 313.748 265.78 313.748 318.259C313.748 373.622 301.316 407.316 280.989 407.316C280.184 407.316 279.391 407.265 278.611 407.163C279.394 407.265 280.189 407.317 280.997 407.317C301.324 407.317 313.756 373.623 313.756 318.26C313.756 265.773 302.274 232.955 283.335 230.479ZM280.989 232.038C276.77 232.038 272.736 233.713 268.953 237.423C265.147 241.155 261.775 246.792 258.987 254.271C253.419 269.212 250.356 291.019 250.356 318.259C250.356 345.875 253.419 367.965 258.989 383.096C261.778 390.67 265.152 396.38 268.961 400.159C272.748 403.917 276.782 405.606 280.989 405.606C285.1 405.606 289.081 403.929 292.845 400.165C296.626 396.384 299.99 390.671 302.779 383.096C308.35 367.964 311.455 345.873 311.455 318.259C311.455 291.021 308.35 269.213 302.781 254.271C299.993 246.792 296.631 241.151 292.853 237.417C289.094 233.702 285.111 232.038 280.989 232.038ZM374.641 228.957H396.646V359.851C396.646 383.9 410.421 397.303 435.116 397.303C454.117 397.303 466.775 390.073 472.157 376.706C466.773 390.07 454.117 397.298 435.118 397.298C410.423 397.298 396.648 383.896 396.647 359.847V228.952H374.641V228.957ZM455.783 228.957H478.459V359.851C478.459 368.25 477.218 375.663 474.801 382.024C477.219 375.662 478.461 368.248 478.461 359.847V228.952H455.781C455.782 228.954 455.783 228.956 455.783 228.957ZM622.279 261.909C621.137 281.056 602.438 292.337 569.081 292.337H566.562C566.573 292.34 566.584 292.344 566.595 292.348H569.081C602.443 292.348 621.143 281.063 622.279 261.909ZM548.359 285.239C553.622 287.463 560.391 288.634 569.081 288.634C578.593 288.634 585.696 285.965 590.493 281.206C595.36 276.377 598.034 269.211 598.034 260.031C598.034 250.722 594.857 244.033 588.443 239.636C581.989 235.21 571.829 232.807 556.985 232.807H548.359V285.239ZM192.965 231.722C192.905 250.507 181.044 269.7 165.673 288.324L117.963 228.952H94.1074L94.1113 228.957H117.963L165.673 288.329C181.045 269.704 192.907 250.509 192.965 231.722ZM546.065 231.097H556.985C587.224 231.097 600.327 240.867 600.327 260.031C600.327 260.496 600.319 260.957 600.306 261.413C600.319 260.954 600.328 260.489 600.328 260.021C600.328 240.856 587.224 231.086 556.985 231.086H546.065V231.097ZM192.888 228.952C192.919 229.471 192.939 229.99 192.951 230.51C192.939 229.992 192.919 229.474 192.888 228.957H217.075L217.079 228.952H192.888ZM281.796 230.347C281.932 230.353 282.068 230.36 282.203 230.369C282.068 230.36 281.932 230.353 281.796 230.347ZM281.935 228.208C283.694 228.24 285.418 228.364 287.104 228.576C285.418 228.364 283.694 228.24 281.935 228.208Z" fill="#D2BEB3"/>
<path d="M178.654 679.461C191.663 679.461 203.94 681.605 213.952 686.845C223.951 692.078 231.405 700.248 235.252 711.972L235.525 712.808L200.67 736.644L201.719 731.29C205.06 714.227 203.973 702.507 199.532 695.127C197.332 691.47 194.358 688.964 190.819 687.364C187.298 685.773 182.998 684.981 177.842 684.98C170.499 684.98 164.346 686.734 159.972 690.036C155.552 693.373 152.765 698.437 152.765 705.206C152.765 714.723 158.373 723.819 167.032 732.938C175.708 742.076 187.289 751.083 199.053 760.481C222.399 779.132 246.487 799.29 246.487 823.809C246.487 836.577 239.823 846.671 228.267 853.571C216.724 860.463 200.579 864.005 182.111 864.005C161.385 864.005 144.235 859.57 131.683 850.98C119.192 842.433 111.48 829.927 109.005 814.003L108.891 813.271L143.794 788.958L142.784 794.352C138.844 815.399 141.272 831.611 148.469 842.479C155.607 853.258 167.26 858.609 182.111 858.609C191.881 858.609 200.534 856.207 206.798 851.51C213.098 846.784 217.149 839.602 217.149 829.913C217.149 807.353 194.61 788.867 171.28 770.521C159.709 761.421 147.956 752.351 139.128 742.974C130.28 733.575 124.239 723.738 124.239 713.055C124.239 703.661 129.162 695.246 138.543 689.166C147.947 683.071 161.619 679.461 178.654 679.461ZM314.271 739.687L344.41 719.393C361.549 707.79 370.403 696.409 372.774 682.242L373.029 680.715H415.225L332.517 735.52C333.698 735.444 334.891 735.406 336.095 735.406C343.576 735.406 350.258 736.188 356.229 738.238C362.204 740.291 367.225 743.532 371.613 748.203C380.033 757.166 386.407 771.716 392.708 794.291L393.317 796.502C400.659 823.494 404.789 838.963 409.288 847.724C411.537 852.104 413.749 854.521 416.134 855.868C418.371 857.132 421.064 857.621 425.142 857.621H429.95V862.768H419.246C411.315 862.768 404.294 861.629 398.079 859.103C391.896 856.588 386.703 852.777 382.188 847.621C373.207 837.367 366.596 821.418 360.396 798.558C354.083 775.472 349.442 761.085 344.457 752.47C341.965 748.163 339.488 745.491 336.918 743.903C334.477 742.395 331.849 741.798 328.572 741.798C326.207 741.798 323.811 742.439 321.684 743.336C319.576 744.225 317.991 745.257 317.321 745.77L317.249 745.824L314.271 747.752V862.768H282.086V680.715H314.271V739.687ZM484.531 862.768H452.347V680.715H484.531V862.768ZM558.812 682.241C559.906 688.722 564.097 695.279 569.123 701.802L570.139 703.105L570.14 703.106L658.623 815.773C657.486 771.406 652.873 727.044 634.882 682.827L634.022 680.715H668V862.768H660.021L548.751 720.537C549.467 767.417 553.553 814.164 572.567 860.652L573.433 862.768H539.45V708.717L517.48 680.715H558.555L558.812 682.241ZM111.768 813.842C116.647 845.236 142.061 862.304 182.111 862.304C210.345 862.304 232.376 853.771 240.414 837.992L240.176 838.449C231.943 853.93 210.069 862.294 182.115 862.294C142.067 862.294 116.654 845.228 111.772 813.837L111.768 813.842ZM284.861 861.066H311.494V861.029H284.865V682.416H284.861V861.066ZM328.575 740.061C322.273 740.061 316.784 743.424 315.157 744.67L311.498 747.037V747.071L315.154 744.707C316.781 743.461 322.27 740.098 328.572 740.098C344.43 740.098 350.529 752.182 363.134 798.277C375.535 843.999 389.36 861.066 419.246 861.066H427.175V861.029H419.249C389.364 861.029 375.539 843.961 363.138 798.24C350.533 752.145 344.433 740.061 328.575 740.061ZM455.123 861.066H481.756V861.029H455.127V682.416H455.123V861.066ZM542.226 708.329V861.066H569.875C569.87 861.054 569.865 861.042 569.86 861.029H542.228V708.292L521.927 682.416H521.896L542.226 708.329ZM545.888 712.942L661.769 861.066H665.225V861.029H661.771L545.888 712.901C545.888 712.915 545.888 712.929 545.888 712.942ZM130.047 701.21C128.048 704.846 127.016 708.834 127.016 713.055C127.016 754.167 219.926 783.444 219.926 829.913C219.926 835.001 218.837 839.47 216.867 843.308C218.84 839.468 219.93 834.995 219.93 829.903C219.93 783.434 127.021 754.157 127.021 713.045C127.021 708.828 128.051 704.843 130.047 701.21ZM240.909 836.973C240.752 837.312 240.589 837.649 240.419 837.982L240.649 837.521C240.738 837.34 240.824 837.156 240.909 836.973ZM637.575 682.416C656.68 729.37 660.75 776.448 661.564 823.401L661.567 823.405C660.754 776.45 656.689 729.371 637.592 682.416H637.575ZM323.899 738.689C323.93 738.681 323.96 738.672 323.99 738.663L408.877 682.416H408.825L323.899 738.689ZM177.847 683.271C165.898 683.271 156.473 687.507 152.312 695.337C156.475 687.513 165.898 683.28 177.842 683.28C200.408 683.28 211.184 697.233 204.475 731.493L232.53 712.308C232.53 712.306 232.529 712.304 232.528 712.302L204.479 731.483C211.188 697.224 200.413 683.271 177.847 683.271Z" fill="#D2BEB3"/>
</svg>
